<svg width="548" height="587" viewBox="0 0 548 587" fill="none" xmlns="http://www.w3.org/2000/svg">
<g clip-path="url(#clip0_7_5932)">
<path opacity="0.4" d="M541.447 190.547L307.213 310.061C285.672 321.052 272.112 343.193 272.112 367.377V523.306" stroke="url(#paint0_linear_7_5932)" stroke-width="0.919223"/>
<path opacity="0.4" d="M10.59 134.474L319.755 288.408C332.242 294.625 340.135 307.374 340.135 321.323V519.169" stroke="url(#paint1_linear_7_5932)" stroke-width="0.919223"/>
<path opacity="0.4" d="M203.17 31.0618L522.889 190.056C535.385 196.27 543.286 209.022 543.286 222.978V555.479" stroke="url(#paint2_linear_7_5932)" stroke-width="0.919223"/>
<path opacity="0.4" d="M68.9613 94.4883L388.681 253.483C401.177 259.697 409.078 272.449 409.078 286.405V556.858" stroke="url(#paint3_linear_7_5932)" stroke-width="0.919223"/>
<path opacity="0.111079" d="M68.9613 94.4883L388.681 253.483C401.177 259.697 409.078 272.449 409.078 286.405V556.858" stroke="url(#paint4_linear_7_5932)" stroke-width="0.919223" stroke-dasharray="0.82 0.92"/>
<path opacity="0.4" d="M5.5343 203.876L234.922 310.658C257.606 321.218 272.112 343.971 272.112 368.993V398.751" stroke="url(#paint5_linear_7_5932)" stroke-width="0.919223"/>
<path opacity="0.4" d="M135.146 60.4769L454.866 219.471C467.362 225.685 475.263 238.438 475.263 252.393V555.479" stroke="url(#paint6_linear_7_5932)" stroke-width="0.919223"/>
<path opacity="0.4" d="M538.69 129.419L226.022 288.513C213.692 294.787 205.927 307.45 205.927 321.284V556.858" stroke="url(#paint7_linear_7_5932)" stroke-width="0.919223"/>
<path opacity="0.01" d="M538.69 129.419L226.022 288.513C213.692 294.787 205.927 307.45 205.927 321.284V556.858" stroke="url(#paint8_linear_7_5932)" stroke-width="0.919223" stroke-dasharray="0.92 0.92"/>
<path opacity="0.4" d="M339.216 31.0618L26.5479 190.156C14.2183 196.43 6.45349 209.093 6.45349 222.927V458.501" stroke="url(#paint9_linear_7_5932)" stroke-width="0.919223"/>
<path opacity="0.4" d="M406.32 60.4769L93.6518 219.571C81.3223 225.845 73.5575 238.508 73.5575 252.342V487.916" stroke="url(#paint10_linear_7_5932)" stroke-width="0.919223"/>
<path opacity="0.4" d="M471.586 94.4883L158.918 253.583C146.588 259.857 138.823 272.52 138.823 286.353V497.568" stroke="url(#paint11_linear_7_5932)" stroke-width="0.919223"/>
<path opacity="0.4" d="M205.927 162.511L136.985 197.441L203.629 230.533L272.572 195.603L205.927 162.511Z" fill="white" fill-opacity="0.1"/>
<path opacity="0.4" d="M402.183 129.878C381.654 140.449 340.319 161.683 339.216 162.051L408.158 196.062L470.665 164.349L402.183 129.878Z" fill="white" fill-opacity="0.1"/>
<path opacity="0.4" d="M125.954 334.405C130.144 334.405 203.622 369.72 253.273 393.916C265.513 399.881 279.76 400.147 292.2 394.611L427.462 334.405" stroke="url(#paint12_linear_7_5932)" stroke-width="0.919223"/>
<path opacity="0.4" d="M125.954 414.378C130.168 414.378 204.469 448.195 254.128 471.109C265.89 476.537 279.378 476.775 291.316 471.745L427.462 414.378" stroke="url(#paint13_linear_7_5932)" stroke-width="0.919223"/>
</g>
<defs>
<linearGradient id="paint0_linear_7_5932" x1="199.033" y1="464.475" x2="540.525" y2="192.842" gradientUnits="userSpaceOnUse">
<stop stop-color="white" stop-opacity="0"/>
<stop offset="0.604167" stop-color="white"/>
<stop offset="1" stop-color="white" stop-opacity="0"/>
</linearGradient>
<linearGradient id="paint1_linear_7_5932" x1="373.687" y1="503.082" x2="4.13468" y2="125.391" gradientUnits="userSpaceOnUse">
<stop stop-color="white" stop-opacity="0"/>
<stop offset="0.604167" stop-color="white"/>
<stop offset="1" stop-color="white" stop-opacity="0"/>
</linearGradient>
<linearGradient id="paint2_linear_7_5932" x1="568.184" y1="252.67" x2="178.221" y2="91.3837" gradientUnits="userSpaceOnUse">
<stop stop-color="white" stop-opacity="0"/>
<stop offset="0.302083" stop-color="white"/>
<stop offset="0.796875" stop-color="white" stop-opacity="0"/>
</linearGradient>
<linearGradient id="paint3_linear_7_5932" x1="485.834" y1="302.692" x2="59.1401" y2="117.064" gradientUnits="userSpaceOnUse">
<stop stop-color="white" stop-opacity="0"/>
<stop offset="0.604167" stop-color="white"/>
<stop offset="1" stop-color="white" stop-opacity="0"/>
</linearGradient>
<linearGradient id="paint4_linear_7_5932" x1="485.834" y1="302.692" x2="59.1401" y2="117.064" gradientUnits="userSpaceOnUse">
<stop stop-color="white" stop-opacity="0"/>
<stop offset="0.604167" stop-color="white"/>
<stop offset="1" stop-color="white" stop-opacity="0"/>
</linearGradient>
<linearGradient id="paint5_linear_7_5932" x1="272.112" y1="326.592" x2="52.6585" y2="219.869" gradientUnits="userSpaceOnUse">
<stop offset="0.372633" stop-color="white"/>
<stop offset="1" stop-color="white" stop-opacity="0"/>
</linearGradient>
<linearGradient id="paint6_linear_7_5932" x1="500.161" y1="269.655" x2="117.046" y2="101.785" gradientUnits="userSpaceOnUse">
<stop stop-color="white" stop-opacity="0"/>
<stop offset="0.604167" stop-color="white"/>
<stop offset="1" stop-color="white" stop-opacity="0"/>
</linearGradient>
<linearGradient id="paint7_linear_7_5932" x1="171.456" y1="496.648" x2="541.406" y2="132.176" gradientUnits="userSpaceOnUse">
<stop stop-color="white" stop-opacity="0"/>
<stop offset="0.583333" stop-color="white"/>
<stop offset="1" stop-color="white" stop-opacity="0"/>
</linearGradient>
<linearGradient id="paint8_linear_7_5932" x1="171.456" y1="496.648" x2="541.406" y2="132.176" gradientUnits="userSpaceOnUse">
<stop stop-color="white" stop-opacity="0"/>
<stop offset="0.583333" stop-color="white"/>
<stop offset="1" stop-color="white" stop-opacity="0"/>
</linearGradient>
<linearGradient id="paint9_linear_7_5932" x1="-17.9062" y1="211.689" x2="340.543" y2="33.7338" gradientUnits="userSpaceOnUse">
<stop stop-color="white" stop-opacity="0"/>
<stop offset="0.302083" stop-color="white"/>
<stop offset="0.796875" stop-color="white" stop-opacity="0"/>
</linearGradient>
<linearGradient id="paint10_linear_7_5932" x1="49.1978" y1="241.104" x2="407.647" y2="63.1489" gradientUnits="userSpaceOnUse">
<stop stop-color="white" stop-opacity="0"/>
<stop offset="0.604167" stop-color="white"/>
<stop offset="1" stop-color="white" stop-opacity="0"/>
</linearGradient>
<linearGradient id="paint11_linear_7_5932" x1="92.4018" y1="282.929" x2="472.969" y2="97.3251" gradientUnits="userSpaceOnUse">
<stop stop-color="white" stop-opacity="0"/>
<stop offset="0.604167" stop-color="white"/>
<stop offset="1" stop-color="white" stop-opacity="0"/>
</linearGradient>
<linearGradient id="paint12_linear_7_5932" x1="276.708" y1="334.405" x2="276.708" y2="403.347" gradientUnits="userSpaceOnUse">
<stop stop-color="white" stop-opacity="0"/>
<stop offset="1" stop-color="white"/>
</linearGradient>
<linearGradient id="paint13_linear_7_5932" x1="276.708" y1="414.378" x2="276.708" y2="479.643" gradientUnits="userSpaceOnUse">
<stop stop-color="white" stop-opacity="0"/>
<stop offset="1" stop-color="white"/>
</linearGradient>
<clipPath id="clip0_7_5932">
<rect width="548" height="587" fill="white"/>
</clipPath>
</defs>
</svg>
