<svg width="943" height="678" viewBox="0 0 943 678" fill="none" xmlns="http://www.w3.org/2000/svg">
<rect x="299.189" y="247.236" width="1.69532" height="1.70417" rx="0.847659" transform="rotate(-27.0846 299.189 247.236)" fill="white"/>
<rect x="281.669" y="493.596" width="1.7" height="1.7" rx="0.85" transform="rotate(-27.0846 281.669 493.596)" fill="white"/>
<rect opacity="0.5" x="298.649" y="613.776" width="1.59239" height="1.59706" rx="0.796194" transform="rotate(-27.0846 298.649 613.776)" fill="white"/>
<rect x="425.559" y="569.246" width="1.62825" height="1.62825" rx="0.814125" transform="rotate(-27.0846 425.559 569.246)" fill="white"/>
<rect x="181.599" y="451.266" width="1.87883" height="1.87883" rx="0.939415" transform="rotate(-27.0846 181.599 451.266)" fill="white"/>
<rect opacity="0.5" x="288.849" y="543.836" width="1.88767" height="1.89652" rx="0.943835" transform="rotate(-27.0846 288.849 543.836)" fill="white"/>
<rect x="360.139" y="205.566" width="1.67296" height="1.68181" rx="0.836481" transform="rotate(-27.0846 360.139 205.566)" fill="white"/>
<rect x="589.049" y="373.576" width="1.90118" height="1.90118" rx="0.950592" transform="rotate(-27.0846 589.049 373.576)" fill="white"/>
<rect opacity="0.5" x="355.739" y="651.956" width="1.79825" height="1.8071" rx="0.899125" transform="rotate(-27.0846 355.739 651.956)" fill="white"/>
<rect x="649.889" y="273.836" width="1.93706" height="1.94124" rx="0.96853" transform="rotate(-27.0846 649.889 273.836)" fill="white"/>
<rect opacity="0.5" x="318.219" y="277.916" width="1.50765" height="1.49412" rx="0.747061" transform="rotate(-27.0846 318.219 277.916)" fill="white"/>
<rect x="610.639" y="462.866" width="1.85648" height="1.85648" rx="0.928238" transform="rotate(-27.0846 610.639 462.866)" fill="white"/>
<rect x="346.599" y="474.276" width="1.41354" height="1.42239" rx="0.706771" transform="rotate(-27.0846 346.599 474.276)" fill="white"/>
<rect opacity="0.5" x="485.819" y="459.556" width="1.58354" height="1.59239" rx="0.79177" transform="rotate(-27.0846 485.819 459.556)" fill="white"/>
<rect x="552.919" y="191.066" width="1.64177" height="1.6371" rx="0.818551" transform="rotate(-27.0846 552.919 191.066)" fill="white"/>
<rect x="526.009" y="550.326" width="1.75775" height="1.75354" rx="0.87677" transform="rotate(-27.0846 526.009 550.326)" fill="white"/>
<rect opacity="0.5" x="589.549" y="357.986" width="1.48061" height="1.48529" rx="0.740304" transform="rotate(-27.0846 589.549 357.986)" fill="white"/>
<rect x="394.289" y="223.586" width="1.4359" height="1.42706" rx="0.71353" transform="rotate(-27.0846 394.289 223.586)" fill="white"/>
<rect x="719.849" y="385.236" width="1.79825" height="1.8071" rx="0.899125" transform="rotate(-27.0846 719.849 385.236)" fill="white"/>
<rect opacity="0.5" x="674.379" y="208.536" width="1.95474" height="1.95941" rx="0.977369" transform="rotate(-27.0846 674.379 208.536)" fill="white"/>
<rect x="425.149" y="456.136" width="1.42706" height="1.42706" rx="0.71353" transform="rotate(-27.0846 425.149 456.136)" fill="white"/>
<rect x="515.499" y="355.296" width="1.6059" height="1.6059" rx="0.802948" transform="rotate(-27.0846 515.499 355.296)" fill="white"/>
<rect opacity="0.5" x="505.609" y="480.066" width="1.73118" height="1.73118" rx="0.865592" transform="rotate(-27.0846 505.609 480.066)" fill="white"/>
<rect x="214.319" y="276.426" width="1.49412" height="1.50296" rx="0.747061" transform="rotate(-27.0846 214.319 276.426)" fill="white"/>
<rect x="360.189" y="246.716" width="1.50765" height="1.50296" rx="0.751482" transform="rotate(-27.0846 360.189 246.716)" fill="white"/>
<rect opacity="0.5" x="103.219" y="392.826" width="1.75354" height="1.75354" rx="0.87677" transform="rotate(-27.0846 103.219 392.826)" fill="white"/>
<rect x="621.479" y="306.256" width="1.76706" height="1.76706" rx="0.88353" transform="rotate(-27.0846 621.479 306.256)" fill="white"/>
<rect x="215.879" y="401.066" width="1.76706" height="1.76238" rx="0.881192" transform="rotate(-27.0846 215.879 401.066)" fill="white"/>
<rect opacity="0.5" x="599.949" y="289.196" width="1.95941" height="1.95474" rx="0.977369" transform="rotate(-27.0846 599.949 289.196)" fill="white"/>
<rect x="428.999" y="537.046" width="1.57003" height="1.57003" rx="0.785016" transform="rotate(-27.0846 428.999 537.046)" fill="white"/>
<rect x="137.859" y="354.896" width="1.70883" height="1.70883" rx="0.854415" transform="rotate(-27.0846 137.859 354.896)" fill="white"/>
<rect opacity="0.5" x="84.5593" y="299.056" width="1.81177" height="1.8071" rx="0.903549" transform="rotate(-27.0846 84.5593 299.056)" fill="white"/>
<rect x="208.899" y="412.096" width="1.87883" height="1.87883" rx="0.939415" transform="rotate(-27.0846 208.899 412.096)" fill="white"/>
<rect x="273.349" y="525.226" width="1.50765" height="1.49412" rx="0.747061" transform="rotate(-27.0846 273.349 525.226)" fill="white"/>
<rect opacity="0.5" x="551.149" y="167.196" width="1.68181" height="1.68648" rx="0.840907" transform="rotate(-27.0846 551.149 167.196)" fill="white"/>
<rect x="593.219" y="513.526" width="1.62825" height="1.62825" rx="0.814125" transform="rotate(-27.0846 593.219 513.526)" fill="white"/>
<rect x="564.479" y="259.766" width="1.73118" height="1.73118" rx="0.865592" transform="rotate(-27.0846 564.479 259.766)" fill="white"/>
<rect opacity="0.5" x="497.619" y="639.786" width="1.93238" height="1.93238" rx="0.966191" transform="rotate(-27.0846 497.619 639.786)" fill="white"/>
<rect x="568.649" y="435.396" width="1.65946" height="1.67296" rx="0.829729" transform="rotate(-27.0846 568.649 435.396)" fill="white"/>
<rect x="673.019" y="487.286" width="1.77589" height="1.77589" rx="0.887947" transform="rotate(-27.0846 673.019 487.286)" fill="white"/>
<rect x="293.059" y="265.056" width="1.62825" height="1.62825" rx="0.814125" transform="rotate(-27.0846 293.059 265.056)" fill="white"/>
<rect x="300.259" y="648.306" width="1.59706" height="1.59706" rx="0.79853" transform="rotate(-27.0846 300.259 648.306)" fill="white"/>
<rect opacity="0.5" x="556.569" y="277.556" width="1.72235" height="1.71767" rx="0.858836" transform="rotate(-27.0846 556.569 277.556)" fill="white"/>
<rect x="419.699" y="157.266" width="1.79825" height="1.78941" rx="0.894707" transform="rotate(-27.0846 419.699 157.266)" fill="white"/>
<rect x="311.749" y="434.876" width="1.42706" height="1.42706" rx="0.71353" transform="rotate(-27.0846 311.749 434.876)" fill="white"/>
<rect opacity="0.5" x="458.559" y="272.796" width="1.34648" height="1.34648" rx="0.673238" transform="rotate(-27.0846 458.559 272.796)" fill="white"/>
<rect x="718.999" y="480.966" width="1.71767" height="1.70883" rx="0.854415" transform="rotate(-27.0846 718.999 480.966)" fill="white"/>
<rect x="40.1995" y="334.896" width="1.87417" height="1.87883" rx="0.937083" transform="rotate(-27.0846 40.1995 334.896)" fill="white"/>
<rect opacity="0.5" x="679.559" y="438.546" width="1.72235" height="1.71767" rx="0.858836" transform="rotate(-27.0846 679.559 438.546)" fill="white"/>
<rect x="172.889" y="343.326" width="1.8206" height="1.8206" rx="0.910302" transform="rotate(-27.0846 172.889 343.326)" fill="white"/>
<rect x="571.489" y="376.976" width="1.61941" height="1.61474" rx="0.807372" transform="rotate(-27.0846 571.489 376.976)" fill="white"/>
<rect opacity="0.5" x="551.089" y="485.666" width="1.64177" height="1.64177" rx="0.820884" transform="rotate(-27.0846 551.089 485.666)" fill="white"/>
<rect x="369.309" y="633.156" width="1.71767" height="1.71767" rx="0.858836" transform="rotate(-27.0846 369.309 633.156)" fill="white"/>
<rect x="721.359" y="452.806" width="1.78474" height="1.77589" rx="0.887947" transform="rotate(-27.0846 721.359 452.806)" fill="white"/>
<rect opacity="0.5" x="349.319" y="438.766" width="1.30177" height="1.30177" rx="0.650884" transform="rotate(-27.0846 349.319 438.766)" fill="white"/>
<rect x="309.409" y="638.096" width="1.92354" height="1.92354" rx="0.961769" transform="rotate(-27.0846 309.409 638.096)" fill="white"/>
<rect x="503.679" y="253.266" width="1.44941" height="1.44941" rx="0.724707" transform="rotate(-27.0846 503.679 253.266)" fill="white"/>
<rect opacity="0.5" x="492.509" y="480.846" width="1.44941" height="1.45825" rx="0.724707" transform="rotate(-27.0846 492.509 480.846)" fill="white"/>
<rect x="47.9692" y="361.776" width="1.91003" height="1.91888" rx="0.955013" transform="rotate(-27.0846 47.9692 361.776)" fill="white"/>
<rect x="355.389" y="571.836" width="1.86531" height="1.86531" rx="0.932657" transform="rotate(-27.0846 355.389 571.836)" fill="white"/>
<rect opacity="0.5" x="442.859" y="454.386" width="1.55653" height="1.56119" rx="0.778267" transform="rotate(-27.0846 442.859 454.386)" fill="white"/>
<rect x="421.649" y="552.946" width="1.74471" height="1.73118" rx="0.865592" transform="rotate(-27.0846 421.649 552.946)" fill="white"/>
<rect x="112.399" y="326.886" width="1.75354" height="1.75354" rx="0.87677" transform="rotate(-27.0846 112.399 326.886)" fill="white"/>
<rect opacity="0.5" x="112.789" y="322.586" width="1.75824" height="1.76238" rx="0.879119" transform="rotate(-27.0846 112.789 322.586)" fill="white"/>
<rect x="241.729" y="650.426" width="1.88767" height="1.89235" rx="0.943835" transform="rotate(-27.0846 241.729 650.426)" fill="white"/>
<rect x="384.389" y="129.526" width="1.58354" height="1.58354" rx="0.79177" transform="rotate(-27.0846 384.389 129.526)" fill="white"/>
<rect opacity="0.5" x="377.239" y="653.666" width="1.74471" height="1.74003" rx="0.870014" transform="rotate(-27.0846 377.239 653.666)" fill="white"/>
<rect x="799.729" y="498.076" width="1.87883" height="1.87883" rx="0.939415" transform="rotate(-27.0846 799.729 498.076)" fill="white"/>
<rect x="591.529" y="368.826" width="1.89652" height="1.89235" rx="0.946177" transform="rotate(-27.0846 591.529 368.826)" fill="white"/>
<rect opacity="0.5" x="137.129" y="401.096" width="1.75354" height="1.75354" rx="0.87677" transform="rotate(-27.0846 137.129 401.096)" fill="white"/>
<rect x="213.409" y="435.696" width="1.83412" height="1.83412" rx="0.91706" transform="rotate(-27.0846 213.409 435.696)" fill="white"/>
<rect x="253.779" y="597.796" width="1.83412" height="1.83412" rx="0.91706" transform="rotate(-27.0846 253.779 597.796)" fill="white"/>
<rect opacity="0.5" x="295.829" y="191.636" width="1.74003" height="1.74003" rx="0.870014" transform="rotate(-27.0846 295.829 191.636)" fill="white"/>
<rect x="491.939" y="465.636" width="1.48061" height="1.48946" rx="0.740304" transform="rotate(-27.0846 491.939 465.636)" fill="white"/>
<rect x="610.049" y="413.716" width="1.95474" height="1.95474" rx="0.977369" transform="rotate(-27.0846 610.049 413.716)" fill="white"/>
<rect opacity="0.5" x="513.169" y="376.236" width="1.36883" height="1.36" rx="0.68" transform="rotate(-27.0846 513.169 376.236)" fill="white"/>
<rect x="198.049" y="536.566" width="1.81177" height="1.81177" rx="0.905884" transform="rotate(-27.0846 198.049 536.566)" fill="white"/>
<rect x="239.199" y="185.336" width="1.64177" height="1.64177" rx="0.820884" transform="rotate(-27.0846 239.199 185.336)" fill="white"/>
<rect opacity="0.5" x="465.129" y="633.606" width="1.8206" height="1.81177" rx="0.905884" transform="rotate(-27.0846 465.129 633.606)" fill="white"/>
<rect x="451.879" y="143.646" width="1.41824" height="1.41354" rx="0.706771" transform="rotate(-27.0846 451.879 143.646)" fill="white"/>
<rect x="219.219" y="568.386" width="1.78941" height="1.7936" rx="0.894707" transform="rotate(-27.0846 219.219 568.386)" fill="white"/>
<rect opacity="0.5" x="348.929" y="459.746" width="1.31061" height="1.31061" rx="0.655305" transform="rotate(-27.0846 348.929 459.746)" fill="white"/>
<rect x="178.809" y="449.946" width="1.7" height="1.69532" rx="0.847659" transform="rotate(-27.0846 178.809 449.946)" fill="white"/>
<rect x="196.709" y="169.896" width="1.95474" height="1.95941" rx="0.977369" transform="rotate(-27.0846 196.709 169.896)" fill="white"/>
<rect opacity="0.5" x="205.649" y="481.206" width="1.58354" height="1.57471" rx="0.787353" transform="rotate(-27.0846 205.649 481.206)" fill="white"/>
<rect x="427.249" y="37.8259" width="1.75354" height="1.75354" rx="0.87677" transform="rotate(-27.0846 427.249 37.8259)" fill="white"/>
<rect x="211.619" y="385.406" width="1.50296" height="1.50296" rx="0.751482" transform="rotate(-27.0846 211.619 385.406)" fill="white"/>
<rect opacity="0.5" x="620.929" y="474.216" width="1.93238" height="1.92354" rx="0.961769" transform="rotate(-27.0846 620.929 474.216)" fill="white"/>
<rect x="563.159" y="388.916" width="1.47177" height="1.47177" rx="0.735884" transform="rotate(-27.0846 563.159 388.916)" fill="white"/>
<rect x="425.949" y="266.496" width="1.36883" height="1.36883" rx="0.684416" transform="rotate(-27.0846 425.949 266.496)" fill="white"/>
<rect opacity="0.5" x="539.489" y="279.416" width="1.6371" height="1.65061" rx="0.818551" transform="rotate(-27.0846 539.489 279.416)" fill="white"/>
<rect x="281.039" y="198.266" width="1.74003" height="1.74471" rx="0.870014" transform="rotate(-27.0846 281.039 198.266)" fill="white"/>
<rect x="349.619" y="152.416" width="1.66412" height="1.66412" rx="0.832061" transform="rotate(-27.0846 349.619 152.416)" fill="white"/>
<rect opacity="0.5" x="384.329" y="180.666" width="1.69532" height="1.69532" rx="0.847659" transform="rotate(-27.0846 384.329 180.666)" fill="white"/>
<rect x="482.409" y="105.916" width="1.87" height="1.86531" rx="0.932657" transform="rotate(-27.0846 482.409 105.916)" fill="white"/>
<rect x="386.819" y="574.476" width="1.51182" height="1.52532" rx="0.75591" transform="rotate(-27.0846 386.819 574.476)" fill="white"/>
<rect opacity="0.5" x="225.059" y="447.576" width="1.67296" height="1.67296" rx="0.836481" transform="rotate(-27.0846 225.059 447.576)" fill="white"/>
<rect x="308.469" y="61.636" width="1.88767" height="1.88767" rx="0.943835" transform="rotate(-27.0846 308.469 61.636)" fill="white"/>
</svg>
