<svg xmlns="http://www.w3.org/2000/svg" width="64" height="64" viewBox="0 0 64 64" fill="none">
<g opacity="0.8" clip-path="url(#clip0_7_5751)">
<path d="M28.8032 46.3992C38.5234 46.3992 46.4032 38.5194 46.4032 28.7992C46.4032 19.079 38.5234 11.1992 28.8032 11.1992C19.0829 11.1992 11.2031 19.079 11.2031 28.7992C11.2031 38.5194 19.0829 46.3992 28.8032 46.3992Z" fill="url(#paint0_linear_7_5751)" fill-opacity="0.24" stroke="white" stroke-width="2" stroke-linecap="round" stroke-linejoin="round"/>
<path opacity="0.2" d="M6.40625 11.2016C6.40625 10.7772 6.57483 10.3703 6.87489 10.0702C7.17495 9.77014 7.58191 9.60156 8.00627 9.60156H28.8062C29.2306 9.60156 29.6376 9.77014 29.9376 10.0702C30.2376 10.3703 30.4062 10.7772 30.4062 11.2016C30.4062 11.6259 30.2376 12.0329 29.9376 12.3329C29.6376 12.633 29.2306 12.8016 28.8062 12.8016H8.00627C7.58191 12.8016 7.17495 12.633 6.87489 12.3329C6.57483 12.0329 6.40625 11.6259 6.40625 11.2016ZM6.40625 52.8016C6.40625 52.3772 6.57483 51.9702 6.87489 51.6702C7.17495 51.3702 7.58191 51.2016 8.00627 51.2016H28.8062C29.2306 51.2016 29.6376 51.3702 29.9376 51.6702C30.2376 51.9702 30.4062 52.3772 30.4062 52.8016C30.4062 53.226 30.2376 53.6328 29.9376 53.933C29.6376 54.233 29.2306 54.4016 28.8062 54.4016H8.00627C7.58191 54.4016 7.17495 54.233 6.87489 53.933C6.57483 53.6328 6.40625 53.226 6.40625 52.8016Z" fill="white"/>
<path d="M44.917 41.639L43.278 40L40 43.278L41.639 44.917L44.917 41.639ZM48.0142 51.2922C48.228 51.5136 48.4838 51.6902 48.7668 51.8118C49.0496 51.9332 49.3538 51.9972 49.6616 52C49.9694 52.0026 50.2746 51.944 50.5596 51.8274C50.8444 51.7108 51.1034 51.5386 51.321 51.321C51.5386 51.1034 51.7108 50.8444 51.8274 50.5596C51.944 50.2746 52.0026 49.9694 52 49.6616C51.9972 49.3538 51.9332 49.0496 51.8118 48.7668C51.6902 48.4838 51.5136 48.228 51.2922 48.0142L48.0142 51.2922ZM41.639 44.917L48.0142 51.2922L51.2922 48.0142L44.917 41.639L41.639 44.917Z" fill="white"/>
<g opacity="0.2">
<path d="M30.4062 46.72C28.02 46.9632 25.6094 46.6652 23.3542 45.848C21.099 45.0308 19.0572 43.7154 17.3807 42H8.00627C7.58191 42 7.17495 42.1686 6.87489 42.4686C6.57483 42.7686 6.40627 43.1756 6.40625 43.6V46.8C6.40625 47.2244 6.57483 47.6314 6.87489 47.9314C7.17495 48.2314 7.58191 48.4 8.00627 48.4H28.8062C29.2306 48.4 29.6376 48.2314 29.9376 47.9314C30.2376 47.6314 30.4062 47.2244 30.4062 46.8V46.72Z" fill="white"/>
</g>
<path d="M15.7183 35.2008H26.8062C27.2306 35.2008 27.6376 35.0322 27.9376 34.7322C28.2376 34.432 28.4062 34.0252 28.4062 33.6008V30.4008C28.4062 29.9764 28.2376 29.5694 27.9376 29.2694C27.6376 28.9694 27.2306 28.8008 26.8062 28.8008H14.0063C14.0063 31.132 14.6302 33.3176 15.7183 35.2008ZM12.1374 35.2008C11.2565 33.1822 10.8033 31.0032 10.8063 28.8008H6.00627C5.58191 28.8008 5.17495 28.9694 4.87489 29.2694C4.57483 29.5694 4.40627 29.9764 4.40625 30.4008V33.6008C4.40625 34.0252 4.57483 34.432 4.87489 34.7322C5.17495 35.0322 5.58191 35.2008 6.00627 35.2008H12.1374Z" fill="white"/>
<path opacity="0.2" fill-rule="evenodd" clip-rule="evenodd" d="M14.9375 24.0016H26.8062C27.2306 24.0016 27.6376 23.833 27.9376 23.533C28.2376 23.2328 28.4062 22.826 28.4062 22.4016V19.2016C28.4062 18.7772 28.2376 18.3703 27.9376 18.0702C27.6376 17.7701 27.2306 17.6016 26.8062 17.6016H20.6046C18.0399 19.0252 16.041 21.2836 14.9375 24.0016ZM11.5391 24.0016C12.2963 21.5952 13.6122 19.4022 15.379 17.6016H6.00627C5.58191 17.6016 5.17495 17.7701 4.87489 18.0702C4.57483 18.3703 4.40627 18.7772 4.40625 19.2016V22.4016C4.40625 22.826 4.57483 23.2328 4.87489 23.533C5.17495 23.833 5.58191 24.0016 6.00627 24.0016H11.5391Z" fill="white"/>
</g>
<defs>
<linearGradient id="paint0_linear_7_5751" x1="28.8032" y1="11.1992" x2="28.8032" y2="46.3992" gradientUnits="userSpaceOnUse">
<stop stop-color="white" stop-opacity="0"/>
<stop offset="1" stop-color="white"/>
</linearGradient>
<clipPath id="clip0_7_5751">
<rect width="64" height="64" fill="white"/>
</clipPath>
</defs>
</svg>